<?xml version="1.0" encoding="utf-8"?>
<!-- Generator: Adobe Illustrator 25.2.0, SVG Export Plug-In . SVG Version: 6.00 Build 0)  -->
<svg version="1.1" id="ee1442bd-1906-4669-896c-455205bcea2c"
	 xmlns="http://www.w3.org/2000/svg" xmlns:xlink="http://www.w3.org/1999/xlink" x="0px" y="0px" viewBox="0 0 814 455.1"
	 style="enable-background:new 0 0 814 455.1;" xml:space="preserve">
<style type="text/css">
	.st0{fill:#F2F2F2;}
	.st1{fill:#3F3D56;}
</style>
<circle class="st0" cx="415" cy="5" r="5"/>
<circle class="st0" cx="258" cy="170" r="2"/>
<circle class="st0" cx="553" cy="264" r="2"/>
<circle class="st0" cx="32" cy="239" r="2"/>
<circle class="st0" cx="812" cy="168" r="2"/>
<circle class="st0" cx="170" cy="189" r="2"/>
<circle class="st0" cx="498" cy="149" r="2"/>
<circle class="st0" cx="564" cy="5" r="2"/>
<rect x="146" y="241" class="st0" width="2" height="1"/>
<rect x="349" y="202" class="st0" width="2" height="1"/>
<rect x="159.3" y="316.1" class="st1" width="3.5" height="139"/>
<path class="st1" d="M195.3,291.9c0.2,48.6-34,88.2-34,88.2s-34.6-39.2-34.8-87.9s34-88.2,34-88.2S195.1,243.2,195.3,291.9z"/>
<rect x="114.8" y="274.9" class="st1" width="4.6" height="180.2"/>
<path class="st1" d="M161.5,255.9c0.3,63-44,114.3-44,114.3s-44.8-50.9-45.1-113.9s44-114.3,44-114.3S161.2,192.9,161.5,255.9z"/>
<rect x="646.3" y="316.1" class="st1" width="3.5" height="139"/>
<path class="st1" d="M682.3,333.9c0.2,48.6-34,88.2-34,88.2s-34.6-39.2-34.8-87.9s34-88.2,34-88.2S682.1,285.2,682.3,333.9z"/>
<rect x="75.3" y="316.1" class="st1" width="3.5" height="139"/>
<path class="st1" d="M111.3,291.9c0.2,48.6-34,88.2-34,88.2s-34.6-39.2-34.8-87.9s34-88.2,34-88.2S111.1,243.2,111.3,291.9z"/>
<rect x="385.3" y="316.1" class="st1" width="3.5" height="139"/>
<path class="st1" d="M421.3,291.9c0.2,48.6-34,88.2-34,88.2s-34.6-39.2-34.8-87.9s34-88.2,34-88.2S421.1,243.2,421.3,291.9z"/>
<rect x="340.8" y="274.9" class="st1" width="4.6" height="180.2"/>
<path class="st1" d="M387.5,255.9c0.3,63-44,114.3-44,114.3s-44.8-50.9-45.1-113.9s44-114.3,44-114.3S387.2,192.9,387.5,255.9z"/>
<rect x="301.3" y="316.1" class="st1" width="3.5" height="139"/>
<path class="st1" d="M337.3,291.9c0.2,48.6-34,88.2-34,88.2s-34.6-39.2-34.8-87.9s34-88.2,34-88.2S337.1,243.2,337.3,291.9z"/>
<path class="st1" d="M234.9,442.7c2,7.5,8.9,12.1,8.9,12.1s3.6-7.5,1.6-14.9s-8.9-12.1-8.9-12.1S232.8,435.3,234.9,442.7z"/>
<path class="st1" d="M237.8,441.1c5.5,5.4,6.2,13.7,6.2,13.7s-8.3-0.5-13.8-5.8s-6.2-13.6-6.2-13.6S232.3,435.8,237.8,441.1z"/>
<path class="st1" d="M518.9,442.7c2,7.5,8.9,12.1,8.9,12.1s3.6-7.5,1.6-14.9s-8.9-12.1-8.9-12.1S516.8,435.3,518.9,442.7z"/>
<path class="st1" d="M521.8,441.1c5.5,5.4,6.2,13.7,6.2,13.7s-8.3-0.5-13.8-5.8c-5.5-5.4-6.2-13.6-6.2-13.6S516.3,435.8,521.8,441.1
	z"/>
<path class="st1" d="M10.8,442.7c2,7.5,8.9,12.1,8.9,12.1s3.6-7.5,1.6-14.9s-8.9-12.1-8.9-12.1S8.8,435.3,10.8,442.7z"/>
<path class="st1" d="M13.8,441.1c5.5,5.4,6.2,13.7,6.2,13.7s-8.3-0.5-13.8-5.8S0,435.3,0,435.3S8.3,435.8,13.8,441.1z"/>
</svg>
