<svg id="ee1442bd-1906-4669-896c-455205bcea2c" xmlns="http://www.w3.org/2000/svg" viewBox="0 0 103.45 289.46"><defs><style>.cls-1,.cls-2{fill:#f2f2f2;}.cls-2,.cls-5{opacity:0.1;isolation:isolate;}.cls-3{fill:#3f3d56;}.cls-4{fill:#ff6584;}</style></defs><circle class="cls-1" cx="33.08" cy="2" r="2"/><path class="cls-2" d="M942.62,496.79a2.88,2.88,0,0,0,0-5.76H919a6.44,6.44,0,0,1-2.88,8.64,2.87,2.87,0,0,0,2.88,2.87h23.66a2.88,2.88,0,1,0,0-5.75Z" transform="translate(-844.71 -213.54)"/><path class="cls-3" d="M886.38,490.85c.41,15.69-9.08,11.69-20.59,11.69s-21,2-21.08-11.69c0-6.74,9.4-8.21,20.91-8.21S886.21,484.11,886.38,490.85Z" transform="translate(-844.71 -213.54)"/><path class="cls-3" d="M913.31,497.05a1.83,1.83,0,0,0-.6-.19,29.44,29.44,0,0,1-3.1-.66,6.41,6.41,0,0,1-2.74-1.53,6.49,6.49,0,0,0-1-.92,1.16,1.16,0,0,0-1.26-.09.52.52,0,0,0-.11.1l-.43-.28L901.8,492l0,0a.87.87,0,0,0,0-.36,1.77,1.77,0,0,0-.77-.95,29.84,29.84,0,0,0,3-.21,3.59,3.59,0,0,0,2.52-1,.73.73,0,0,0,.18-.41c0-.31-.32-.52-.61-.63a5.43,5.43,0,0,0-1.19-.35,6.3,6.3,0,0,1-.84-.18,4.19,4.19,0,0,1-.71-.34l-1.46-.8a2.26,2.26,0,0,1-.57-.4c-.25-.26-.36-.63-.61-.89s-1.18-.55-1.32-.06c0,.19.15.4.18.62a10.11,10.11,0,0,0-1-.56.52.52,0,0,0,.06-.13,13.16,13.16,0,0,1-3.76-4.86h.44a1.13,1.13,0,0,0,.7-.17.75.75,0,0,0,.25-.63,1.93,1.93,0,0,0-.16-.67,5.13,5.13,0,0,0-1-1.75,5.65,5.65,0,0,0-1.42-1l-.09-.05a3,3,0,0,0-.11-.32,16.84,16.84,0,0,0-1.07-1.9,12.34,12.34,0,0,1-1.22-3.26,4.35,4.35,0,0,0-.77-1.92c-.77-.84-2.08-.82-3.2-.69-.65.07-1.29.17-1.93.27,0,0,0,0,0-.05a1.4,1.4,0,0,1-.15-.49,2.88,2.88,0,0,1,.09-.4,1,1,0,0,0-.28-.93l-.08-.08c.07-.16.14-.33.2-.5a.68.68,0,0,0,.14-.46,5.32,5.32,0,0,0,.18-1.26,13.48,13.48,0,0,1-.1-2.84,1.52,1.52,0,0,0-.25-.65.73.73,0,0,0-.09-.08,3.65,3.65,0,0,1,.67-.69,9.93,9.93,0,0,1,1.57-1c.14-.07.32-.13.45-.21a5.61,5.61,0,0,0,.59.06,4.5,4.5,0,0,0,4.21-6.12,1.57,1.57,0,0,0,1-.73,2.85,2.85,0,0,0,.38-1.24,1.33,1.33,0,0,0-.19-1,2.26,2.26,0,0,0-.57-.4,2.13,2.13,0,0,1-.71-.72c-.13-.21-.22-.44-.33-.65a2.43,2.43,0,0,0-2.1-1.39,8.78,8.78,0,0,0-1.24.25c-1.4.24-2.92-.5-4.22.08a3.77,3.77,0,0,0-.88.59c-.37.3-.72.62-1.06.95a2.26,2.26,0,0,0-.64.94c-.18.66.24,1.4,0,2a2.78,2.78,0,0,1-.33.51c-.29.44,0,2.12,0,2.65a1,1,0,0,0,.18.72.71.71,0,0,0,.14.1,58.7,58.7,0,0,0-6.38,2.71,13.63,13.63,0,0,0-5.92,5.53c-.35.69-.62,1.41-.94,2.11a30.78,30.78,0,0,1-1.45,2.72c-.62,1.09-1.25,2.18-2,3.2a19.33,19.33,0,0,0-1.15,1.69,2.26,2.26,0,0,0,0,.26.5.5,0,0,1,0,.24.37.37,0,0,1-.27.16l0,0a15,15,0,0,0-.4,1.6,25.64,25.64,0,0,0-.69,2.57.68.68,0,0,0,.17.94.7.7,0,0,0,.5.12c.75.33,1.47.72,2.19,1.12a.8.8,0,0,0,0,.15,3,3,0,0,0,1.56,2.74,8.06,8.06,0,0,0,3.19.86c.43.06.87.08,1.3.12a8.48,8.48,0,0,0,2,.81,1.85,1.85,0,0,0,.47.08,1.42,1.42,0,0,0,1.07-.61,74.15,74.15,0,0,0,11.15-.22,4.11,4.11,0,0,1,3,.46c.8.66,1,1.82,1.56,2.66a10.31,10.31,0,0,0,1.46,1.42,21.66,21.66,0,0,1,2.79,3.67,8.28,8.28,0,0,0,3.37,3.11,2.35,2.35,0,0,1,1-.91l.33-.22a3.3,3.3,0,0,0,.51.67c.14.15.28.32.42.49h0c-.19,0-.26.27-.28.47-.08.75-.17,1.49-.25,2.24a.86.86,0,0,0,0,.45.77.77,0,0,0,.4.33,6,6,0,0,0,2.22.59c.39,0,.78,0,1.16.05a14.87,14.87,0,0,1,1.88.37,17.69,17.69,0,0,0,5.13.41,3.37,3.37,0,0,0,1-.2,3.19,3.19,0,0,0,1-.8,3,3,0,0,0,.77-1.23A1.22,1.22,0,0,0,913.31,497.05Z" transform="translate(-844.71 -213.54)"/><path class="cls-4" d="M885.64,446.82c.17,0,.33-.08.49-.12a3.75,3.75,0,0,0-1.56.15A4.25,4.25,0,0,0,885.64,446.82Z" transform="translate(-844.71 -213.54)"/><path class="cls-4" d="M889,448c.11.21.2.44.33.65a2.13,2.13,0,0,0,.71.72,2.26,2.26,0,0,1,.57.4,1.33,1.33,0,0,1,.19,1,2.85,2.85,0,0,1-.38,1.24,1.57,1.57,0,0,1-1,.73,4.42,4.42,0,0,1-4.8,6.06c-.13.08-.31.14-.44.21a9.58,9.58,0,0,0-1.58,1,3.65,3.65,0,0,0-.67.69.73.73,0,0,1,.09.08,1.52,1.52,0,0,1,.25.65,13.48,13.48,0,0,0,.1,2.84,5.32,5.32,0,0,1-.18,1.26.68.68,0,0,1-.14.46c-.06.17-.13.34-.2.5l.08.09a1,1,0,0,1,.28.92,2.88,2.88,0,0,0-.09.4,1.4,1.4,0,0,0,.15.49s0,0,0,.05c.64-.1,1.28-.2,1.93-.27a7.46,7.46,0,0,1,.95-.06.78.78,0,0,1,0-.21,2.88,2.88,0,0,1,.09-.4,1,1,0,0,0-.28-.92l-.08-.09c.07-.16.14-.33.2-.5a.68.68,0,0,0,.14-.46,5.32,5.32,0,0,0,.18-1.26,13.48,13.48,0,0,1-.1-2.84,1.52,1.52,0,0,0-.25-.65.73.73,0,0,0-.09-.08,3.65,3.65,0,0,1,.67-.69,9.58,9.58,0,0,1,1.58-1c.13-.07.31-.13.44-.21a5.61,5.61,0,0,0,.59.06,4.5,4.5,0,0,0,4.21-6.12,1.57,1.57,0,0,0,1-.73,2.85,2.85,0,0,0,.38-1.24,1.33,1.33,0,0,0-.19-1,2.26,2.26,0,0,0-.57-.4,2.13,2.13,0,0,1-.71-.72c-.13-.21-.22-.44-.33-.65a2.43,2.43,0,0,0-2.1-1.39,8.78,8.78,0,0,0-1.24.25,3.2,3.2,0,0,1-.69,0A2.94,2.94,0,0,1,889,448Z" transform="translate(-844.71 -213.54)"/><path class="cls-4" d="M913.31,497.05a1.83,1.83,0,0,0-.6-.19,29.44,29.44,0,0,1-3.1-.66,6.41,6.41,0,0,1-2.74-1.53,6.49,6.49,0,0,0-1-.92,1.16,1.16,0,0,0-1.26-.09.52.52,0,0,0-.11.1l-.43-.28L901.8,492l0,0a.87.87,0,0,0,0-.36,1.77,1.77,0,0,0-.77-.95,29.84,29.84,0,0,0,3-.21,3.59,3.59,0,0,0,2.52-1,.73.73,0,0,0,.18-.41c0-.31-.32-.52-.61-.63a5.43,5.43,0,0,0-1.19-.35,6.3,6.3,0,0,1-.84-.18,4.19,4.19,0,0,1-.71-.34l-1.46-.8a2.26,2.26,0,0,1-.57-.4c-.25-.26-.36-.63-.61-.89s-1.18-.55-1.32-.06c0,.19.15.4.18.62a10.11,10.11,0,0,0-1-.56.52.52,0,0,0,.06-.13,13.16,13.16,0,0,1-3.76-4.86h.44a1.13,1.13,0,0,0,.7-.17.75.75,0,0,0,.25-.63,1.93,1.93,0,0,0-.16-.67,5.13,5.13,0,0,0-1-1.75,5.65,5.65,0,0,0-1.42-1l-.09-.05a3,3,0,0,0-.11-.32,16.84,16.84,0,0,0-1.07-1.9,12.34,12.34,0,0,1-1.22-3.26,4.35,4.35,0,0,0-.77-1.92c-.77-.84-2.08-.82-3.2-.69l-.76.11a2.11,2.11,0,0,1,1,.58,4.35,4.35,0,0,1,.77,1.92A12.34,12.34,0,0,0,889.4,474a16.84,16.84,0,0,1,1.07,1.9,3,3,0,0,1,.11.32l.09.05a5.65,5.65,0,0,1,1.42,1,5.13,5.13,0,0,1,1,1.75,1.93,1.93,0,0,1,.16.67.75.75,0,0,1-.25.63,1.13,1.13,0,0,1-.7.17h-.44a13.16,13.16,0,0,0,3.76,4.86.52.52,0,0,1-.06.13,10.11,10.11,0,0,1,1,.56c0-.22-.23-.43-.18-.62.14-.49,1.08-.18,1.32.06s.36.63.61.89a2.26,2.26,0,0,0,.57.4l1.46.8a4.19,4.19,0,0,0,.71.34,6.3,6.3,0,0,0,.84.18,5.43,5.43,0,0,1,1.19.35c.29.11.61.32.61.63a.73.73,0,0,1-.18.41,3.59,3.59,0,0,1-2.52,1,29.84,29.84,0,0,1-3,.21,1.77,1.77,0,0,1,.77.95.87.87,0,0,1,0,.36l0,0,2.3,1.49.43.28a.52.52,0,0,1,.11-.1,1.16,1.16,0,0,1,1.26.09,6.49,6.49,0,0,1,1,.92,6.41,6.41,0,0,0,2.74,1.53,29.44,29.44,0,0,0,3.1.66,1.83,1.83,0,0,1,.6.19,1.22,1.22,0,0,1,.44,1.31,2.92,2.92,0,0,1-.77,1.23,3.19,3.19,0,0,1-1,.8,2.8,2.8,0,0,1-.76.17,17.63,17.63,0,0,0,2.72,0,3.37,3.37,0,0,0,1-.2,3.19,3.19,0,0,0,1-.8,3,3,0,0,0,.77-1.23A1.22,1.22,0,0,0,913.31,497.05Z" transform="translate(-844.71 -213.54)"/><path class="cls-4" d="M896.67,494.55l.15.14a1.63,1.63,0,0,1-.11-.17Z" transform="translate(-844.71 -213.54)"/><path class="cls-4" d="M941.34,486.24c0,10.59-4.73,7.67-10.55,7.67s-10.55,2.92-10.55-7.67,10.55-30.7,10.55-30.7S941.34,475.64,941.34,486.24Z" transform="translate(-844.71 -213.54)"/><path class="cls-5" d="M935.58,490.29c0,4.82-2.14,3.49-4.79,3.49s-4.8,1.33-4.8-3.49,4.8-14,4.8-14S935.58,485.48,935.58,490.29Z" transform="translate(-844.71 -213.54)"/><path class="cls-4" d="M944,457.93s2.19-2.28,2.15-4.52" transform="translate(-844.71 -213.54)"/><path class="cls-4" d="M921.55,438.94s-.92-3-2.89-4.09" transform="translate(-844.71 -213.54)"/><path class="cls-4" d="M899.55,397.94s-.92-3-2.89-4.09" transform="translate(-844.71 -213.54)"/><path class="cls-4" d="M925.55,452.94s-.92-3-2.89-4.09" transform="translate(-844.71 -213.54)"/><path class="cls-4" d="M922.55,403.94s-.92-3-2.89-4.09" transform="translate(-844.71 -213.54)"/><path class="cls-4" d="M916.55,421.94s-.92-3-2.89-4.09" transform="translate(-844.71 -213.54)"/><path class="cls-4" d="M942,488.93s2.19-2.28,2.15-4.52" transform="translate(-844.71 -213.54)"/><path class="cls-4" d="M946,471.93s2.19-2.28,2.15-4.52" transform="translate(-844.71 -213.54)"/><rect class="cls-4" x="894.14" y="473.04" width="25.3" height="1" transform="translate(-947.92 97.51) rotate(-18.43)"/><path class="cls-4" d="M916.89,470c.9,3.52-.61,2.68-2,3s-1.11,1.55-3-1.93c-1.31-2.41.61-2.68,2-3S916.27,467.62,916.89,470Z" transform="translate(-844.71 -213.54)"/></svg>